<svg xmlns="http://www.w3.org/2000/svg" xmlns:xlink="http://www.w3.org/1999/xlink" width="500" zoomAndPan="magnify" viewBox="0 0 375 374.999991" height="500" preserveAspectRatio="xMidYMid meet" version="1.0"><defs><clipPath id="aafa7d4096"><path d="M 75.054688 68.980469 L 231.804688 68.980469 L 231.804688 305.980469 L 75.054688 305.980469 Z M 75.054688 68.980469 " clip-rule="nonzero"/></clipPath><clipPath id="2e0194b783"><path d="M 153.421875 274.023438 C 178.996094 274.023438 199.804688 253.242188 199.804688 227.703125 L 199.804688 100.917969 L 107.035156 100.917969 L 107.035156 274.023438 Z M 75.054688 305.980469 L 75.054688 68.980469 L 231.804688 68.980469 L 231.804688 227.703125 C 231.804688 270.859375 196.648438 305.964844 153.4375 305.964844 Z M 75.054688 305.980469 " clip-rule="nonzero"/></clipPath><clipPath id="d98c268f4c"><path d="M 268.113281 68.980469 L 299.613281 68.980469 L 299.613281 100.480469 L 268.113281 100.480469 Z M 268.113281 68.980469 " clip-rule="nonzero"/></clipPath><linearGradient x1="0.740985" gradientTransform="matrix(931.195958, -361.359611, 361.359611, 931.195958, -425.139025, 359.861992)" y1="0" x2="0.781794" gradientUnits="userSpaceOnUse" y2="0" id="bd0aec3aab"><stop stop-opacity="1" stop-color="rgb(90.092468%, 51.878357%, 42.027283%)" offset="0"/><stop stop-opacity="1" stop-color="rgb(89.97345%, 51.980591%, 42.195129%)" offset="0.25"/><stop stop-opacity="1" stop-color="rgb(89.736938%, 52.185059%, 42.529297%)" offset="0.5"/><stop stop-opacity="1" stop-color="rgb(89.498901%, 52.389526%, 42.863464%)" offset="0.75"/><stop stop-opacity="1" stop-color="rgb(89.26239%, 52.592468%, 43.199158%)" offset="1"/></linearGradient></defs><g clip-path="url(#aafa7d4096)"><g clip-path="url(#2e0194b783)"><path fill="#fc5e38" d="M -4.988281 99.996094 L 95.570312 358.773438 L 311.84375 274.960938 L 211.289062 16.183594 Z M -4.988281 99.996094 " fill-opacity="1" fill-rule="nonzero"/></g></g><g clip-path="url(#d98c268f4c)"><path fill="url(#bd0aec3aab)" d="M 257.492188 73.101562 L 272.238281 111.101562 L 310.238281 96.355469 L 295.492188 58.355469 Z M 257.492188 73.101562 " fill-rule="nonzero"/></g></svg>